<?xml version="1.0" encoding="UTF-8" standalone="no"?>
<!-- Created with Inkscape (http://www.inkscape.org/) -->

<svg
   width="256"
   height="256"
   viewBox="0 0 67.733334 67.733334"
   version="1.1"
   id="svg1"
   inkscape:version="1.4.3 (0d15f75, 2025-12-25)"
   sodipodi:docname="favicon.svg"
   xmlns:inkscape="http://www.inkscape.org/namespaces/inkscape"
   xmlns:sodipodi="http://sodipodi.sourceforge.net/DTD/sodipodi-0.dtd"
   xmlns="http://www.w3.org/2000/svg"
   xmlns:svg="http://www.w3.org/2000/svg">
  <sodipodi:namedview
     id="namedview1"
     pagecolor="#ffffff"
     bordercolor="#000000"
     borderopacity="0.25"
     inkscape:showpageshadow="2"
     inkscape:pageopacity="0.0"
     inkscape:pagecheckerboard="0"
     inkscape:deskcolor="#d1d1d1"
     inkscape:document-units="mm"
     inkscape:zoom="0.71891835"
     inkscape:cx="396.42889"
     inkscape:cy="449.98156"
     inkscape:window-width="1920"
     inkscape:window-height="1009"
     inkscape:window-x="-8"
     inkscape:window-y="-8"
     inkscape:window-maximized="1"
     inkscape:current-layer="layer2" />
  <defs
     id="defs1" />
  <g
     inkscape:groupmode="layer"
     id="layer2"
     inkscape:label="Layer 2">
    <rect
       style="font-variation-settings:'wght' 700;fill:#cccccc;stroke-width:0.425;stroke-linecap:round;stroke-linejoin:round"
       id="rect1"
       width="67.73333"
       height="67.73333"
       x="0"
       y="0" />
  </g>
  <g
     inkscape:label="Layer 1"
     inkscape:groupmode="layer"
     id="layer1">
    <path
       fill-rule="evenodd"
       clip-rule="evenodd"
       d="m 7.8778351,21.991349 c -1.111e-4,1.623159 0.6452564,3.179874 1.7941829,4.327675 1.148897,1.147816 2.707197,1.792709 4.33208,1.792806 1.624891,1.18e-4 3.183265,-0.64459 4.332303,-1.792258 1.149052,-1.147661 1.794627,-2.70428 1.794723,-4.327438 1.19e-4,-1.623144 -0.645256,-3.179859 -1.794175,-4.327675 -1.148897,-1.147801 -2.707182,-1.792695 -4.332088,-1.792813 -1.624884,-9.7e-5 -3.183257,0.64459 -4.3322951,1.792265 -1.1490524,1.14766 -1.7946271,2.704294 -1.7947308,4.327438 z m 6.1260339,9.674092 C 11.930475,31.665064 9.9119138,30.999972 8.2452055,29.767965 6.5784968,28.535966 5.3516286,26.802126 4.7451098,24.821526 4.1385764,22.840933 4.1844804,20.718176 4.8759381,18.765571 5.5673952,16.81295 6.868007,15.13361 8.5863732,13.974562 c 1.7183518,-1.15904 3.7637438,-1.736557 5.8352358,-1.647576 2.071491,0.08899 4.05971,0.839744 5.672118,2.141844 1.612422,1.302107 2.763903,3.086805 3.285047,5.091498 0.521166,2.004693 0.384414,4.123547 -0.390041,6.044805 l 3.810307,2.543058 c -0.02813,0.08899 -0.05479,0.178509 -0.07915,0.268468 l -0.608829,2.171615 -1.395368,0.931746 -3.928808,-2.622022 c -1.74719,1.709571 -4.142576,2.767606 -6.782966,2.767436 z M 7.8763321,45.741352 c 9.62e-5,-1.623203 0.6457006,-3.1798 1.7947234,-4.327557 1.1490375,-1.147564 2.7074115,-1.792265 4.3323025,-1.792265 1.624906,2e-4 3.183183,0.645108 4.33208,1.79285 1.148912,1.147757 1.794294,2.704554 1.794183,4.327757 -1.03e-4,1.623003 -0.6457,3.179599 -1.794731,4.327356 -1.14903,1.147564 -2.707411,1.792258 -4.332295,1.792258 -1.624891,-1.92e-4 -3.18319,-0.645108 -4.3320874,-1.792843 C 8.5216181,48.921144 7.8762358,47.364355 7.8763321,45.741352 Z m 6.1272629,-9.673389 c -2.071595,0 -4.0885492,0.663692 -5.7546283,1.893544 -1.6660867,1.229837 -2.8934732,2.960975 -3.5018874,4.938947 -0.6083849,1.978165 -0.5658119,4.099144 0.1216473,6.051254 0.687385,1.952109 1.9833471,3.632515 3.6975004,4.794577 1.714161,1.161861 3.756147,1.744265 5.826069,1.6612 2.069929,-0.08285 4.058674,-0.826684 5.674117,-2.12215 1.615459,-1.295466 2.772471,-3.074204 3.301114,-5.075098 0.528644,-2.000887 0.401074,-4.118335 -0.364053,-6.041258 l 40.409849,-26.911996 -3.758865,0.30956 c -5.300971,0.556853 -10.434443,2.17896 -15.091698,4.768752 l -12.154809,6.751077 c -0.456603,0.254697 -0.857832,0.597278 -1.180867,1.008007 -0.323036,0.410698 -0.561222,0.881317 -0.700935,1.384639 l -1.000247,3.577193 -8.708067,5.815585 C 19.007068,37.07366 16.556848,36.065379 14.00361,36.067926 Z m 18.355941,4.60103 0.04739,0.02739 12.154024,6.752758 c 4.656863,2.590347 9.790142,4.21315 15.091106,4.770677 L 59.109245,49.551741 53.972634,46.329042 38.945001,36.266997 Z"
       fill="#8162FF"
       id="path13"
       style="fill:#6e11b0;fill-opacity:1;stroke-width:1.95897" />
  </g>
</svg>
