<?xml version="1.0" encoding="UTF-8" standalone="no"?>
<svg
   width="134"
   height="22"
   viewBox="0 0 134 22"
   fill="none"
   version="1.1"
   id="svg13"
   sodipodi:docname="Logo.svg"
   inkscape:version="1.4.3 (0d15f75, 2025-12-25)"
   xmlns:inkscape="http://www.inkscape.org/namespaces/inkscape"
   xmlns:sodipodi="http://sodipodi.sourceforge.net/DTD/sodipodi-0.dtd"
   xmlns="http://www.w3.org/2000/svg"
   xmlns:svg="http://www.w3.org/2000/svg">
  <defs
     id="defs13" />
  <sodipodi:namedview
     id="namedview13"
     pagecolor="#ffffff"
     bordercolor="#000000"
     borderopacity="0.25"
     inkscape:showpageshadow="2"
     inkscape:pageopacity="0.0"
     inkscape:pagecheckerboard="0"
     inkscape:deskcolor="#d1d1d1"
     showguides="true"
     inkscape:zoom="4.8137654"
     inkscape:cx="66.060552"
     inkscape:cy="-7.1669467"
     inkscape:window-width="1920"
     inkscape:window-height="1009"
     inkscape:window-x="-8"
     inkscape:window-y="-8"
     inkscape:window-maximized="1"
     inkscape:current-layer="svg13">
    <sodipodi:guide
       position="37.0271,20.49584"
       orientation="0,-1"
       id="guide13"
       inkscape:locked="false" />
    <sodipodi:guide
       position="45.3646,1.3311"
       orientation="0,-1"
       id="guide14"
       inkscape:locked="false" />
  </sodipodi:namedview>
  <g
     inkscape:groupmode="layer"
     id="layer3"
     inkscape:label="Layer 1"
     style="fill:#000000" />
  <path
     d="m 36.6796,8.32686 2e-4,-3.86583 -2.5356,-1.6e-4 -3e-4,5.10842 z m 3.0315,2.15404 -5e-4,7.5384 c -10e-5,1.7948 -0.9096,2.6508 -2.8113,2.6506 l -5.7878,-3e-4 0.0013,-19.16353 6.0357,3.8e-4 c 1.5986,10e-5 2.5631,0.93901 2.563,2.62341 l -2e-4,4.03152 c -1e-4,1.24259 -0.386,1.98812 -1.3506,2.31942 z m -3.0321,7.2068 4e-4,-6.1577 -2.5357,1.27 -3e-4,4.8875 z"
     fill="#ffffff"
     id="path4" />
  <path
     d="m 50.584,20.6708 -3.1419,-2e-4 5e-4,-8.1182 -2.3152,1.1872 -4e-4,6.9309 -3.1419,-2e-4 10e-4,-16.5403 c 10e-5,-1.6844 0.9373,-2.62318 2.5358,-2.62308 l 3.5002,2.2e-4 c 1.5985,10e-5 2.5631,0.93901 2.563,2.62341 z m -3.1412,-11.48725 3e-4,-4.639 -2.3151,-1.5e-4 -3e-4,5.7711 z"
     fill="#ffffff"
     id="path5" />
  <path
     d="m 58.3702,9.23947 3e-4,-4.69423 -2.3151,-1.5e-4 -4e-4,5.85401 z m 3.1418,1.76743 -2.3152,1.1872 3.5824,8.4775 -3.2797,-2e-4 -2.9761,-7.0968 -0.4686,0.2485 -4e-4,6.8481 -3.1419,-2e-4 0.0012,-19.16355 6.0358,3.9e-4 c 1.5985,10e-5 2.563,0.939 2.5629,2.6234 z"
     fill="#ffffff"
     id="path6" />
  <path
     d="M 69.327,8.32893 V 4.4631 l -2.535,-1.6e-4 -0.001,5.10842 z m 3.032,2.15407 -10e-4,7.5383 c 0,1.7949 -0.909,2.6508 -2.811,2.6507 l -5.7879,-4e-4 0.0012,-19.16346 6.0357,3.8e-4 c 1.599,1.1e-4 2.563,0.93901 2.563,2.62341 v 4.03152 c 0,1.24259 -0.386,1.98815 -1.351,2.31945 z m -3.032,7.2068 v -6.1577 l -2.536,1.27 v 4.8875 z"
     fill="#ffffff"
     id="path7" />
  <path
     d="m 82.212,20.6728 -7.579,-5e-4 0.001,-19.16347 7.579,4.8e-4 v 3.06506 l -4.437,-2.8e-4 -10e-4,4.94274 4.438,-2.23638 -10e-4,3.42405 -4.437,2.264 v 4.639 l 4.437,3e-4 z"
     fill="#ffffff"
     id="path8" />
  <path
     d="m 89.591,9.24145 0.001,-4.69423 -2.316,-1.4e-4 v 5.85402 z m 3.142,1.76745 -2.315,1.1872 3.582,8.4775 -3.279,-2e-4 -2.977,-7.0968 -0.468,0.2485 -10e-4,6.848 -3.141,-2e-4 0.001,-19.16347 6.036,3.9e-4 c 1.598,10e-5 2.563,0.93901 2.562,2.62341 z"
     fill="#ffffff"
     id="path9" />
  <path
     fill-rule="evenodd"
     clip-rule="evenodd"
     d="m 1.81656,4.93827 c -6e-5,0.82858 0.3294,1.62324 0.91588,2.20916 0.58648,0.58593 1.38195,0.91513 2.21141,0.91518 0.82946,6e-5 1.62497,-0.32904 2.21152,-0.9149 C 7.74193,6.56186 8.07148,5.76725 8.07153,4.93867 8.07159,4.1101 7.74213,3.31544 7.15565,2.72951 6.56917,2.14359 5.77371,1.81439 4.94424,1.81433 4.11478,1.81428 3.31927,2.14338 2.73272,2.72923 2.14616,3.31508 1.81661,4.1097 1.81656,4.93827 Z M 4.94373,9.87663 C 3.88532,9.87644 2.8549,9.53692 2.00409,8.90802 1.15328,8.27912 0.526999,7.39404 0.217387,6.383 -0.0922245,5.37196 -0.0688178,4.28835 0.284164,3.2916 0.637145,2.29484 1.30106,1.43758 2.17824,0.845918 3.05541,0.25426 4.09953,-0.0405458 5.15697,0.00487441 6.21441,0.0502947 7.22934,0.433543 8.05243,1.09823 8.87553,1.76292 9.46333,2.67396 9.72936,3.6973 9.99538,4.72064 9.92559,5.80226 9.53024,6.78301 L 11.4753,8.08117 C 11.461,8.12661 11.4475,8.1723 11.4349,8.21822 L 11.1241,9.32677 10.4118,9.8024 8.40625,8.46393 C 7.51436,9.33662 6.29158,9.87672 4.94373,9.87663 Z M 1.81579,17.062 c 5e-5,-0.8286 0.3296,-1.6232 0.91616,-2.2091 0.58655,-0.5858 1.38206,-0.9149 2.21152,-0.9149 0.82947,10e-5 1.62493,0.3293 2.21141,0.9152 0.58649,0.5859 0.91594,1.3806 0.91588,2.2092 -5e-5,0.8285 -0.3296,1.6231 -0.91616,2.209 C 6.56805,19.8572 5.77254,20.1863 4.94308,20.1863 4.11362,20.1862 3.31815,19.857 2.73167,19.2711 2.14519,18.6852 1.81574,17.8905 1.81579,17.062 Z m 3.1278,-4.938 c -1.05749,0 -2.08709,0.3388 -2.93758,0.9666 -0.85049,0.6278 -1.477037,1.5115 -1.787617,2.5212 -0.3105793,1.0098 -0.2888206,2.0925 0.062081,3.089 0.350901,0.9965 1.012446,1.8543 1.887476,2.4475 0.87503,0.5931 1.91741,0.8904 2.97405,0.848 C 6.19864,21.954 7.21384,21.5743 8.03848,20.913 8.86313,20.2517 9.45375,19.3437 9.72361,18.3223 9.99347,17.3009 9.92833,16.22 9.53777,15.2384 L 30.1659,1.50056 28.2471,1.6586 c -2.706,0.28426 -5.3265,1.1123 -7.7039,2.43432 l -6.2047,3.44624 c -0.2331,0.13001 -0.4379,0.3049 -0.6028,0.51456 -0.1649,0.20965 -0.2865,0.44989 -0.3578,0.70682 L 12.8673,10.5866 8.42207,13.5553 C 7.49772,12.6374 6.24695,12.1227 4.94359,12.124 Z m 9.37021,2.3487 0.0242,0.0141 6.2043,3.4471 c 2.3772,1.3223 4.9976,2.1507 7.7036,2.4353 L 27.9688,19.0071 25.3467,17.362 17.6755,12.2256 Z"
     fill="#8162FF"
     id="path13"
     style="fill:#6e11b0;fill-opacity:1" />
  <path
     d="m 94.312494,4.12702 c 1e-4,-1.6844 0.9373,-2.62318 2.53581,-2.62308 l 3.500176,2.2e-4 c 1.5985,10e-5 2.5631,0.93901 2.5629,2.62341 v 0.46942 l -3.169576,1.65659 1e-4,-1.71201 -2.2875,-1.5e-4 -3e-4,4.8323 5.457176,-2.8162 -7e-4,11.48706 c -10e-5,1.6844 -0.9648,2.6232 -2.5633,2.6231 l -3.500176,-2e-4 c -1.5986,-10e-5 -2.5356,-0.939 -2.5355,-2.6234 l 2e-4,-1.7949 3.142,-1.629 -2e-4,3.0099 2.2875,10e-5 4e-4,-6.0197 -5.4296,2.8439 z"
     fill="#ffffff"
     id="path14"
     style="fill:#6e11b0;fill-opacity:1" />
  <path
     id="path28"
     style="fill:#6e11b0;fill-opacity:1"
     d="m 117.71649,1.5039062 c -1.59851,-9.99e-5 -2.53506,0.9386469 -2.53516,2.6230469 -0.001,4.639323 -0.002,9.2786459 -0.002,13.9179689 -10e-5,1.6844 0.93656,2.622947 2.53516,2.623047 h 3.5 c 1.5985,10e-5 2.56435,-0.938647 2.56445,-2.623047 V 4.1269531 c 2e-4,-1.6844 -0.964,-2.6229468 -2.5625,-2.6230469 z m 0.60547,3.0371094 h 2.28711 0.002 c -0.003,4.3632796 -0.002,8.7265624 -0.002,13.0898434 h -2.28711 z"
     sodipodi:nodetypes="ccccccccccccccc" />
  <path
     id="path31"
     style="font-variation-settings:'wght' 700;fill:#6e11b0;fill-opacity:1;stroke-width:1.6063;stroke-linecap:round;stroke-linejoin:round"
     d="m 113.34982,6.55752 -8.59918,4.459423 -2e-4,3.437437 8.59917,-4.4656787 z m -6.06271,-5.0536138 c -1.59851,-9.98e-5 -2.53506,0.9386469 -2.53516,2.6230469 -10e-4,4.639323 -0.002,9.2786459 -0.002,13.9179689 -1e-4,1.6844 0.93656,2.622947 2.53516,2.623047 h 0.60742 V 17.630859 4.5410156 1.5039062 Z m 2.89258,0 v 3.0371094 h 0.002 c -0.001,1.6730367 -0.002,3.3464939 -0.002,5.0195313 v 8.0703121 3.03711 h 0.60547 c 1.5985,10e-5 2.56435,-0.938647 2.56445,-2.623047 V 4.1269531 c 2e-4,-1.6844 -0.964,-2.6229468 -2.5625,-2.6230469 z" />
  <path
     d="m 131.1057,9.23947 3e-4,-4.69423 -2.3151,-1.5e-4 -4e-4,5.85401 z m 3.1418,1.76743 c -2.38201,1.216423 -4.89768,2.519482 -5.4572,2.8162 l -4e-4,6.8481 -3.1419,-2e-4 0.001,-19.16355 6.0358,3.9e-4 c 1.5985,10e-5 2.563,0.939 2.5629,2.6234 z"
     fill="#ffffff"
     id="path32"
     sodipodi:nodetypes="ccccccccccscc"
     style="fill:#6e11b0;fill-opacity:1" />
</svg>
